 <svg xmlns="http://www.w3.org/2000/svg" width="1024" height="1024" viewBox="0 0 1024 1024" version="1.1"> <path d="M 518.656 198.677 C 518.404 198.929, 516.016 199.317, 513.349 199.538 C 506.674 200.092, 500.971 200.830, 498 201.525 C 496.625 201.847, 494.375 202.255, 493 202.432 C 488.792 202.974, 483.782 203.983, 477.500 205.555 C 469.302 207.605, 468.500 207.823, 468.500 208.006 C 468.500 208.093, 467.237 208.371, 465.694 208.624 C 463.331 209.011, 452.219 212.639, 447 214.727 C 446.175 215.057, 445.275 215.388, 445 215.463 C 442.343 216.183, 439.406 217.396, 439 217.941 C 438.725 218.310, 435.575 219.648, 432 220.915 C 423.517 223.922, 418.676 226.144, 417.765 227.448 C 417.361 228.027, 417.024 228.151, 417.015 227.724 C 416.995 226.714, 395.745 237.805, 394.773 239.333 C 394.365 239.975, 394.024 240.146, 394.015 239.714 C 394.007 239.282, 392.321 240.069, 390.268 241.464 C 388.215 242.859, 386.212 244, 385.816 244 C 384.771 244, 372.505 252.686, 371.016 254.480 C 369.412 256.413, 367.274 256.417, 365.348 254.491 C 364.518 253.661, 363.476 253.206, 363.033 253.480 C 362.589 253.754, 361.671 253.308, 360.991 252.489 C 360.311 251.670, 358.910 251, 357.878 251 C 356.845 251, 356 250.550, 356 250 C 356 249.450, 355.525 249, 354.944 249 C 354.363 249, 351.326 247.729, 348.194 246.175 C 345.062 244.621, 342.050 243.217, 341.500 243.055 C 340.950 242.893, 339.375 242.318, 338 241.778 C 327.899 237.809, 317.310 234.344, 316.342 234.691 C 315.705 234.919, 314.890 234.632, 314.533 234.053 C 314.175 233.474, 312.634 233, 311.108 233 C 309.582 233, 308.024 232.691, 307.646 232.313 C 307.268 231.935, 306.181 231.516, 305.230 231.382 C 304.278 231.248, 299.675 230.236, 295 229.133 C 290.325 228.031, 284.025 226.868, 281 226.548 C 277.975 226.228, 273.025 225.659, 270 225.283 C 252.363 223.091, 209.932 224.968, 197 228.513 C 196.725 228.588, 194.250 228.986, 191.500 229.397 C 188.750 229.808, 185.375 230.568, 184 231.086 C 182.625 231.603, 180.488 232.246, 179.250 232.513 C 170.497 234.407, 167.510 235.268, 166.250 236.260 C 165.563 236.802, 165 236.989, 165 236.676 C 165 236.363, 161.963 237.233, 158.250 238.609 C 154.538 239.986, 150.825 241.267, 150 241.457 C 147.263 242.086, 139.530 245.318, 137.527 246.669 C 136.443 247.401, 134.789 248, 133.852 248 C 131.586 248, 98 264.963, 98 266.107 C 98 266.598, 97.155 267, 96.122 267 C 95.090 267, 93.685 267.675, 93 268.500 C 92.315 269.325, 91.205 270, 90.533 270 C 89.860 270, 88.495 270.900, 87.500 272 C 86.505 273.100, 85.085 274, 84.345 274 C 83.605 274, 83 274.450, 83 275 C 83 275.550, 82.501 276, 81.891 276 C 79.879 276, 62 293.252, 62 295.193 C 62 295.715, 61.437 296.770, 60.750 297.537 C 60.062 298.303, 58.985 299.552, 58.355 300.311 C 56.590 302.438, 49.052 318.249, 48.729 320.500 C 48.571 321.600, 48.137 322.988, 47.765 323.584 C 47.392 324.180, 46.818 326.205, 46.488 328.084 C 46.159 329.963, 45.500 333.300, 45.022 335.500 C 42.724 346.102, 45.051 371.259, 49.057 379.112 C 50.126 381.207, 51 383.664, 51 384.572 C 51 388.475, 62.719 406.730, 69.448 413.306 C 74.672 418.413, 79.015 422, 79.973 422 C 80.538 422, 81 422.360, 81 422.801 C 81 423.640, 89.638 429.408, 90.185 428.933 C 90.358 428.783, 92.483 429.911, 94.907 431.441 C 97.330 432.971, 99.805 434.298, 100.407 434.390 C 101.008 434.481, 101.950 434.821, 102.500 435.145 C 110.803 440.033, 138.482 442.831, 152.255 440.174 C 156.691 439.318, 169.650 439.457, 176.500 440.434 C 178.150 440.670, 179.982 440.893, 180.570 440.931 C 182.470 441.053, 190.132 448.217, 191.108 450.783 C 192.858 455.388, 193.088 459.655, 193.517 495.642 C 193.752 515.364, 194.165 534.200, 194.434 537.500 C 194.703 540.800, 195.137 546.200, 195.400 549.500 C 195.662 552.800, 196.123 556.886, 196.423 558.581 C 196.723 560.276, 197.185 563.201, 197.450 565.081 C 197.714 566.961, 198.170 569.625, 198.464 571 C 198.757 572.375, 199.257 575.525, 199.576 578 C 200.060 581.763, 201.684 589.358, 203.424 596 C 203.640 596.825, 204.374 599.750, 205.054 602.500 C 205.735 605.250, 206.910 608.733, 207.666 610.240 C 208.422 611.746, 209.038 613.321, 209.035 613.740 C 209.020 615.802, 212.551 626, 213.281 626 C 213.741 626, 213.890 626.370, 213.610 626.822 C 213.331 627.274, 213.795 628.961, 214.641 630.572 C 215.487 632.182, 216.353 634.366, 216.566 635.424 C 217.569 640.418, 233.042 669.497, 240.107 679.663 C 241.698 681.953, 243 684.316, 243 684.913 C 243 685.511, 243.367 686, 243.815 686 C 244.263 686, 245.381 687.575, 246.299 689.500 C 247.217 691.425, 248.395 693, 248.916 693 C 249.438 693, 250.126 693.821, 250.444 694.824 C 250.762 695.827, 251.824 697.514, 252.803 698.574 C 253.782 699.633, 256.069 702.668, 257.886 705.318 C 259.703 707.967, 261.822 710.378, 262.595 710.675 C 263.368 710.971, 264 711.579, 264 712.025 C 264 713.441, 280.782 731.865, 289.877 740.434 C 292.834 743.220, 297.359 747.525, 299.932 750 C 306.218 756.047, 315.475 763.938, 319.874 767 C 321.850 768.375, 324.316 770.260, 325.355 771.188 C 328.588 774.077, 341.899 783, 342.977 783 C 343.539 783, 344 783.348, 344 783.773 C 344 784.198, 345.688 785.416, 347.750 786.481 C 349.813 787.545, 352.713 789.236, 354.196 790.238 C 356.992 792.127, 378.500 803.373, 378.500 802.946 C 378.500 802.813, 380.525 803.737, 383 805 C 385.475 806.263, 387.500 807.198, 387.500 807.078 C 387.500 806.958, 388.850 807.388, 390.500 808.034 C 398.667 811.233, 405.577 813.805, 406.250 813.897 C 406.663 813.954, 407.225 814.056, 407.500 814.125 C 407.775 814.194, 408.337 814.335, 408.750 814.438 C 409.163 814.542, 412.450 815.569, 416.056 816.721 C 419.661 817.872, 424.161 819.071, 426.056 819.383 C 427.950 819.696, 430.850 820.324, 432.500 820.778 C 434.150 821.232, 436.175 821.551, 437 821.486 C 437.825 821.421, 439.175 821.690, 440 822.083 C 440.825 822.477, 443.975 823.106, 447 823.482 C 479.004 827.453, 509.300 826.187, 542.500 819.491 C 543.600 819.269, 544.950 819.023, 545.500 818.945 C 546.050 818.867, 547.343 818.351, 548.374 817.800 C 549.405 817.248, 551.205 816.676, 552.374 816.528 C 558.106 815.803, 574.895 810.501, 583 806.857 C 584.375 806.238, 586.400 805.403, 587.500 805.001 C 592.414 803.203, 609.632 795.547, 610.851 794.617 C 611.594 794.051, 612.755 793.506, 613.432 793.407 C 614.108 793.308, 618 791.301, 622.081 788.947 C 626.161 786.593, 630.962 783.973, 632.750 783.125 C 634.538 782.277, 636 781.227, 636 780.792 C 636 780.356, 636.873 780, 637.941 780 C 639.009 780, 640.171 779.532, 640.525 778.959 C 640.879 778.387, 643.043 776.746, 645.334 775.312 C 647.625 773.879, 650.574 771.647, 651.886 770.353 C 654.887 767.394, 656.038 767.408, 660.531 770.456 C 662.521 771.807, 666.479 773.789, 669.325 774.860 C 672.171 775.931, 676.750 777.923, 679.500 779.288 C 682.250 780.652, 687.425 782.758, 691 783.967 C 694.575 785.176, 698.897 786.793, 700.604 787.560 C 703.908 789.045, 714.204 791.756, 720 792.666 C 721.925 792.968, 724.276 793.627, 725.224 794.129 C 726.172 794.631, 730.447 795.511, 734.724 796.083 C 739.001 796.655, 743.625 797.340, 745 797.606 C 750.749 798.715, 759.518 799.235, 776.500 799.471 C 799.268 799.789, 812.128 798.661, 831.500 794.650 C 832.600 794.422, 835.410 793.919, 837.745 793.531 C 840.079 793.143, 842.248 792.408, 842.564 791.897 C 842.880 791.386, 843.489 791.184, 843.918 791.449 C 844.582 791.860, 858.409 788.125, 863 786.296 C 863.825 785.967, 864.950 785.597, 865.500 785.474 C 867.450 785.037, 876.544 781.836, 879.500 780.546 C 882.252 779.345, 887.500 777.118, 892.500 775.029 C 900.922 771.510, 917 763.451, 917 762.749 C 917 762.272, 917.414 762.138, 917.919 762.450 C 918.425 762.763, 919.438 762.451, 920.169 761.758 C 920.901 761.065, 923.975 759.200, 927 757.612 C 932.504 754.724, 941.704 748.953, 945.440 746.046 C 949.684 742.744, 957.972 734.449, 957.985 733.491 C 957.993 732.935, 958.900 731.919, 960 731.232 C 961.100 730.545, 962 729.378, 962 728.638 C 962 727.898, 963.090 726.116, 964.422 724.678 C 968.304 720.490, 976.276 702.756, 977.539 695.500 C 979.207 685.914, 979.659 680.484, 979.480 672.167 C 979.246 661.296, 978.304 653.436, 976.926 650.863 C 976.417 649.910, 976 648.387, 976 647.478 C 976 644.894, 969.226 630.091, 965.256 624 C 955.874 609.605, 929.667 589, 920.742 589 C 920.004 589, 918.973 588.575, 918.450 588.055 C 917.928 587.536, 916.061 586.859, 914.301 586.550 C 912.542 586.242, 909.998 585.570, 908.648 585.056 C 902.810 582.837, 884.480 582.241, 872.620 583.885 C 851.766 586.777, 834.628 581.777, 832.550 572.194 C 832.229 570.712, 831.721 568.375, 831.422 567 C 830.965 564.900, 829.683 500.778, 829.913 491.500 C 830.055 485.772, 825.439 448.343, 823.873 442.529 C 823.279 440.324, 822.649 437.390, 822.472 436.010 C 822.114 433.212, 818.282 418.339, 817.317 416 C 816.977 415.175, 816.591 414.050, 816.460 413.500 C 815.768 410.596, 811.657 399.237, 810.461 396.925 C 809.701 395.456, 809.362 393.972, 809.707 393.627 C 810.051 393.282, 809.883 393, 809.333 393 C 808.783 393, 808.333 392.367, 808.333 391.594 C 808.333 390.304, 805.895 384.797, 800.765 374.500 C 793.332 359.580, 789.947 353.455, 784.817 345.646 C 781.617 340.776, 779 336.581, 779 336.323 C 779 335.758, 768.812 322.352, 766.164 319.431 C 765.132 318.294, 764.110 316.876, 763.894 316.282 C 762.158 311.520, 729.615 278.189, 714 265.182 C 709.325 261.288, 703.870 256.728, 701.878 255.051 C 699.887 253.373, 697.787 252, 697.212 252 C 696.637 252, 696.017 251.606, 695.833 251.126 C 695.430 250.069, 680.296 239.716, 675.746 237.384 C 673.961 236.469, 672.275 235.413, 672 235.036 C 671.725 234.659, 669.475 233.316, 667 232.050 C 664.525 230.785, 661.825 229.374, 661 228.914 C 655.177 225.668, 642 219.151, 642 219.517 C 642 219.764, 640.399 219.067, 638.443 217.968 C 636.486 216.869, 634.124 215.842, 633.193 215.686 C 632.262 215.530, 630.600 214.928, 629.500 214.349 C 624.814 211.881, 597.497 204.064, 587.500 202.332 C 578.874 200.836, 571.669 199.787, 567 199.347 C 559.665 198.655, 519.238 198.095, 518.656 198.677" fill="#6c3cf4" fill-rule="evenodd" /> </svg>