<svg xmlns="http://www.w3.org/2000/svg" width="50" height="50" viewBox="0 0 1024 1024" fill="none"> <path fill-rule="evenodd" clip-rule="evenodd" d="M518.656 198.677C518.404 198.929 516.016 199.317 513.349 199.538C506.674 200.092 500.971 200.83 498 201.525C496.625 201.847 494.375 202.255 493 202.432C488.792 202.974 483.782 203.983 477.5 205.555C469.302 207.605 468.5 207.823 468.5 208.006C468.5 208.093 467.237 208.371 465.694 208.624C463.331 209.011 452.219 212.639 447 214.727C446.175 215.057 445.275 215.388 445 215.463C442.343 216.183 439.406 217.396 439 217.941C438.725 218.31 435.575 219.648 432 220.915C423.517 223.922 418.676 226.144 417.765 227.448C417.361 228.027 417.024 228.151 417.015 227.724C416.995 226.714 395.745 237.805 394.773 239.333C394.365 239.975 394.024 240.146 394.015 239.714C394.007 239.282 392.321 240.069 390.268 241.464C388.215 242.859 386.212 244 385.816 244C384.771 244 372.505 252.686 371.016 254.48C369.412 256.413 367.274 256.417 365.348 254.491C364.518 253.661 363.476 253.206 363.033 253.48C362.589 253.754 361.671 253.308 360.991 252.489C360.311 251.67 358.91 251 357.878 251C356.845 251 356 250.55 356 250C356 249.45 355.525 249 354.944 249C354.363 249 351.326 247.729 348.194 246.175C345.062 244.621 342.05 243.217 341.5 243.055C340.95 242.893 339.375 242.318 338 241.778C327.899 237.809 317.31 234.344 316.342 234.691C315.705 234.919 314.89 234.632 314.533 234.053C314.175 233.474 312.634 233 311.108 233C309.582 233 308.024 232.691 307.646 232.313C307.268 231.935 306.181 231.516 305.23 231.382C304.278 231.248 299.675 230.236 295 229.133C290.325 228.031 284.025 226.868 281 226.548C277.975 226.228 273.025 225.659 270 225.283C252.363 223.091 209.932 224.968 197 228.513C196.725 228.588 194.25 228.986 191.5 229.397C188.75 229.808 185.375 230.568 184 231.086C182.625 231.603 180.488 232.246 179.25 232.513C170.497 234.407 167.51 235.268 166.25 236.26C165.563 236.802 165 236.989 165 236.676C165 236.363 161.963 237.233 158.25 238.609C154.538 239.986 150.825 241.267 150 241.457C147.263 242.086 139.53 245.318 137.527 246.669C136.443 247.401 134.789 248 133.852 248C131.586 248 98 264.963 98 266.107C98 266.598 97.155 267 96.122 267C95.09 267 93.685 267.675 93 268.5C92.315 269.325 91.205 270 90.533 270C89.86 270 88.495 270.9 87.5 272C86.505 273.1 85.085 274 84.345 274C83.605 274 83 274.45 83 275C83 275.55 82.501 276 81.891 276C79.879 276 62 293.252 62 295.193C62 295.715 61.437 296.77 60.75 297.537C60.062 298.303 58.985 299.552 58.355 300.311C56.59 302.438 49.052 318.249 48.729 320.5C48.571 321.6 48.137 322.988 47.765 323.584C47.392 324.18 46.818 326.205 46.488 328.084C46.159 329.963 45.5 333.3 45.022 335.5C42.724 346.102 45.051 371.259 49.057 379.112C50.126 381.207 51 383.664 51 384.572C51 388.475 62.719 406.73 69.448 413.306C74.672 418.413 79.015 422 79.973 422C80.538 422 81 422.36 81 422.801C81 423.64 89.638 429.408 90.185 428.933C90.358 428.783 92.483 429.911 94.907 431.441C97.33 432.971 99.805 434.298 100.407 434.39C101.008 434.481 101.95 434.821 102.5 435.145C110.803 440.033 138.482 442.831 152.255 440.174C156.691 439.318 169.65 439.457 176.5 440.434C178.15 440.67 179.982 440.893 180.57 440.931C182.47 441.053 190.132 448.217 191.108 450.783C192.858 455.388 193.088 459.655 193.517 495.642C193.752 515.364 194.165 534.2 194.434 537.5C194.703 540.8 195.137 546.2 195.4 549.5C195.662 552.8 196.123 556.886 196.423 558.581C196.723 560.276 197.185 563.201 197.45 565.081C197.714 566.961 198.17 569.625 198.464 571C198.757 572.375 199.257 575.525 199.576 578C200.06 581.763 201.684 589.358 203.424 596C203.64 596.825 204.374 599.75 205.054 602.5C205.735 605.25 206.91 608.733 207.666 610.24C208.422 611.746 209.038 613.321 209.035 613.74C209.02 615.802 212.551 626 213.281 626C213.741 626 213.89 626.37 213.61 626.822C213.331 627.274 213.795 628.961 214.641 630.572C215.487 632.182 216.353 634.366 216.566 635.424C217.569 640.418 233.042 669.497 240.107 679.663C241.698 681.953 243 684.316 243 684.913C243 685.511 243.367 686 243.815 686C244.263 686 245.381 687.575 246.299 689.5C247.217 691.425 248.395 693 248.916 693C249.438 693 250.126 693.821 250.444 694.824C250.762 695.827 251.824 697.514 252.803 698.574C253.782 699.633 256.069 702.668 257.886 705.318C259.703 707.967 261.822 710.378 262.595 710.675C263.368 710.971 264 711.579 264 712.025C264 713.441 280.782 731.865 289.877 740.434C292.834 743.22 297.359 747.525 299.932 750C306.218 756.047 315.475 763.938 319.874 767C321.85 768.375 324.316 770.26 325.355 771.188C328.588 774.077 341.899 783 342.977 783C343.539 783 344 783.348 344 783.773C344 784.198 345.688 785.416 347.75 786.481C349.813 787.545 352.713 789.236 354.196 790.238C356.992 792.127 378.5 803.373 378.5 802.946C378.5 802.813 380.525 803.737 383 805C385.475 806.263 387.5 807.198 387.5 807.078C387.5 806.958 388.85 807.388 390.5 808.034C398.667 811.233 405.577 813.805 406.25 813.897C406.663 813.954 407.225 814.056 407.5 814.125C407.775 814.194 408.337 814.335 408.75 814.438C409.163 814.542 412.45 815.569 416.056 816.721C419.661 817.872 424.161 819.071 426.056 819.383C427.95 819.696 430.85 820.324 432.5 820.778C434.15 821.232 436.175 821.551 437 821.486C437.825 821.421 439.175 821.69 440 822.083C440.825 822.477 443.975 823.106 447 823.482C479.004 827.453 509.3 826.187 542.5 819.491C543.6 819.269 544.95 819.023 545.5 818.945C546.05 818.867 547.343 818.351 548.374 817.8C549.405 817.248 551.205 816.676 552.374 816.528C558.106 815.803 574.895 810.501 583 806.857C584.375 806.238 586.4 805.403 587.5 805.001C592.414 803.203 609.632 795.547 610.851 794.617C611.594 794.051 612.755 793.506 613.432 793.407C614.108 793.308 618 791.301 622.081 788.947C626.161 786.593 630.962 783.973 632.75 783.125C634.538 782.277 636 781.227 636 780.792C636 780.356 636.873 780 637.941 780C639.009 780 640.171 779.532 640.525 778.959C640.879 778.387 643.043 776.746 645.334 775.312C647.625 773.879 650.574 771.647 651.886 770.353C654.887 767.394 656.038 767.408 660.531 770.456C662.521 771.807 666.479 773.789 669.325 774.86C672.171 775.931 676.75 777.923 679.5 779.288C682.25 780.652 687.425 782.758 691 783.967C694.575 785.176 698.897 786.793 700.604 787.56C703.908 789.045 714.204 791.756 720 792.666C721.925 792.968 724.276 793.627 725.224 794.129C726.172 794.631 730.447 795.511 734.724 796.083C739.001 796.655 743.625 797.34 745 797.606C750.749 798.715 759.518 799.235 776.5 799.471C799.268 799.789 812.128 798.661 831.5 794.65C832.6 794.422 835.41 793.919 837.745 793.531C840.079 793.143 842.248 792.408 842.564 791.897C842.88 791.386 843.489 791.184 843.918 791.449C844.582 791.86 858.409 788.125 863 786.296C863.825 785.967 864.95 785.597 865.5 785.474C867.45 785.037 876.544 781.836 879.5 780.546C882.252 779.345 887.5 777.118 892.5 775.029C900.922 771.51 917 763.451 917 762.749C917 762.272 917.414 762.138 917.919 762.45C918.425 762.763 919.438 762.451 920.169 761.758C920.901 761.065 923.975 759.2 927 757.612C932.504 754.724 941.704 748.953 945.44 746.046C949.684 742.744 957.972 734.449 957.985 733.491C957.993 732.935 958.9 731.919 960 731.232C961.1 730.545 962 729.378 962 728.638C962 727.898 963.09 726.116 964.422 724.678C968.304 720.49 976.276 702.756 977.539 695.5C979.207 685.914 979.659 680.484 979.48 672.167C979.246 661.296 978.304 653.436 976.926 650.863C976.417 649.91 976 648.387 976 647.478C976 644.894 969.226 630.091 965.256 624C955.874 609.605 929.667 589 920.742 589C920.004 589 918.973 588.575 918.45 588.055C917.928 587.536 916.061 586.859 914.301 586.55C912.542 586.242 909.998 585.57 908.648 585.056C902.81 582.837 884.48 582.241 872.62 583.885C851.766 586.777 834.628 581.777 832.55 572.194C832.229 570.712 831.721 568.375 831.422 567C830.965 564.9 829.683 500.778 829.913 491.5C830.055 485.772 825.439 448.343 823.873 442.529C823.279 440.324 822.649 437.39 822.472 436.01C822.114 433.212 818.282 418.339 817.317 416C816.977 415.175 816.591 414.05 816.46 413.5C815.768 410.596 811.657 399.237 810.461 396.925C809.701 395.456 809.362 393.972 809.707 393.627C810.051 393.282 809.883 393 809.333 393C808.783 393 808.333 392.367 808.333 391.594C808.333 390.304 805.895 384.797 800.765 374.5C793.332 359.58 789.947 353.455 784.817 345.646C781.617 340.776 779 336.581 779 336.323C779 335.758 768.812 322.352 766.164 319.431C765.132 318.294 764.11 316.876 763.894 316.282C762.158 311.52 729.615 278.189 714 265.182C709.325 261.288 703.87 256.728 701.878 255.051C699.887 253.373 697.787 252 697.212 252C696.637 252 696.017 251.606 695.833 251.126C695.43 250.069 680.296 239.716 675.746 237.384C673.961 236.469 672.275 235.413 672 235.036C671.725 234.659 669.475 233.316 667 232.05C664.525 230.785 661.825 229.374 661 228.914C655.177 225.668 642 219.151 642 219.517C642 219.764 640.399 219.067 638.443 217.968C636.486 216.869 634.124 215.842 633.193 215.686C632.262 215.53 630.6 214.928 629.5 214.349C624.814 211.881 597.497 204.064 587.5 202.332C578.874 200.836 571.669 199.787 567 199.347C559.665 198.655 519.238 198.095 518.656 198.677Z" fill="#6C3CF4" stroke="white" stroke-width="12"/> <g opacity="0.13" filter="url(#filter0_df_1_3)"> <mask id="path-2-outside-1_1_3" maskUnits="userSpaceOnUse" x="252.55" y="244.691" width="519.63" height="516.186" fill="black"> <rect fill="white" x="252.55" y="244.691" width="519.63" height="516.186"/> <path d="M648.68 628.122C621.162 670.03 586.869 691.809 545.801 693.459C505.007 695.289 461.464 681.006 415.174 650.61C368.883 620.215 338.333 585.847 323.524 547.506C308.989 509.345 315.66 469.037 343.537 426.581L375.372 378.099C393.717 350.16 415.489 331.332 440.687 321.613C466.339 311.8 493.546 310.065 522.31 316.408C551.074 322.751 580.11 335.544 609.418 354.789C638.726 374.034 661.87 395.502 678.849 419.196C696.102 443.069 705.414 468.587 706.785 495.752C708.156 522.917 699.759 550.332 681.594 577.997L648.68 628.122ZM448.805 508.051C441.431 519.281 439.463 530.337 442.902 541.219C446.615 552.281 454.908 562.039 467.781 570.492C480.655 578.945 492.768 582.587 504.121 581.417C515.927 580.153 525.517 573.906 532.891 562.676L575.517 497.76C582.891 486.529 584.722 475.383 581.009 464.321C577.75 453.165 569.684 443.361 556.81 434.907C543.936 426.454 531.686 422.722 520.06 423.713C508.708 424.882 499.345 431.082 491.97 442.313L448.805 508.051Z"/> </mask> <path d="M648.68 628.122C621.162 670.03 586.869 691.809 545.801 693.459C505.007 695.289 461.464 681.006 415.174 650.61C368.883 620.215 338.333 585.847 323.524 547.506C308.989 509.345 315.66 469.037 343.537 426.581L375.372 378.099C393.717 350.16 415.489 331.332 440.687 321.613C466.339 311.8 493.546 310.065 522.31 316.408C551.074 322.751 580.11 335.544 609.418 354.789C638.726 374.034 661.87 395.502 678.849 419.196C696.102 443.069 705.414 468.587 706.785 495.752C708.156 522.917 699.759 550.332 681.594 577.997L648.68 628.122ZM448.805 508.051C441.431 519.281 439.463 530.337 442.902 541.219C446.615 552.281 454.908 562.039 467.781 570.492C480.655 578.945 492.768 582.587 504.121 581.417C515.927 580.153 525.517 573.906 532.891 562.676L575.517 497.76C582.891 486.529 584.722 475.383 581.009 464.321C577.75 453.165 569.684 443.361 556.81 434.907C543.936 426.454 531.686 422.722 520.06 423.713C508.708 424.882 499.345 431.082 491.97 442.313L448.805 508.051Z" fill="url(#paint0_linear_1_3)" shape-rendering="crispEdges"/> <path d="M545.801 693.459L545.52 686.465C545.509 686.465 545.498 686.466 545.487 686.466L545.801 693.459ZM323.524 547.506L316.982 549.998C316.986 550.008 316.99 550.018 316.994 550.028L323.524 547.506ZM440.687 321.613L438.186 315.075C438.18 315.077 438.174 315.08 438.168 315.082L440.687 321.613ZM678.849 419.196L673.159 423.273C673.165 423.281 673.17 423.288 673.175 423.296L678.849 419.196ZM706.785 495.752L699.794 496.105V496.105L706.785 495.752ZM442.902 541.219L436.227 543.329C436.24 543.368 436.253 543.407 436.266 543.447L442.902 541.219ZM504.121 581.417L504.838 588.38C504.847 588.379 504.857 588.378 504.866 588.377L504.121 581.417ZM581.009 464.321L574.29 466.284C574.316 466.373 574.343 466.461 574.373 466.548L581.009 464.321ZM520.06 423.713L519.466 416.738C519.425 416.741 519.384 416.745 519.343 416.749L520.06 423.713ZM648.68 628.122L642.829 624.28C616.243 664.768 583.825 684.926 545.52 686.465L545.801 693.459L546.082 700.454C589.913 698.692 626.081 675.292 654.531 631.964L648.68 628.122ZM545.801 693.459L545.487 686.466C506.606 688.21 464.506 674.63 419.016 644.759L415.174 650.61L411.331 656.462C458.422 687.383 503.407 702.368 546.115 700.452L545.801 693.459ZM415.174 650.61L419.016 644.759C373.529 614.891 344.181 581.56 330.054 544.984L323.524 547.506L316.994 550.028C332.485 590.134 364.237 625.538 411.331 656.462L415.174 650.61ZM323.524 547.506L330.065 545.014C316.526 509.467 322.408 471.513 349.389 430.423L343.537 426.581L337.686 422.739C308.912 466.561 301.452 509.224 316.982 549.998L323.524 547.506ZM343.537 426.581L349.389 430.423L381.223 381.941L375.372 378.099L369.521 374.257L337.686 422.739L343.537 426.581ZM375.372 378.099L381.223 381.941C398.959 354.931 419.668 337.223 443.206 328.144L440.687 321.613L438.168 315.082C411.31 325.441 388.475 345.39 369.521 374.257L375.372 378.099ZM440.687 321.613L443.188 328.151C467.468 318.863 493.274 317.173 520.803 323.244L522.31 316.408L523.817 309.572C493.819 302.957 465.21 304.737 438.186 315.075L440.687 321.613ZM522.31 316.408L520.803 323.244C548.593 329.372 576.847 341.776 605.576 360.64L609.418 354.789L613.26 348.938C583.372 329.313 553.555 316.13 523.817 309.572L522.31 316.408ZM609.418 354.789L605.576 360.64C634.307 379.506 656.772 400.406 673.159 423.273L678.849 419.196L684.539 415.118C666.968 390.599 643.146 368.561 613.26 348.938L609.418 354.789ZM678.849 419.196L673.175 423.296C689.705 446.168 698.497 470.403 699.794 496.105L706.785 495.752L713.776 495.399C712.331 466.772 702.499 439.969 684.522 415.095L678.849 419.196ZM706.785 495.752L699.794 496.105C701.075 521.488 693.273 547.457 675.742 574.155L681.594 577.997L687.445 581.839C706.246 553.207 715.237 524.346 713.776 495.399L706.785 495.752ZM681.594 577.997L675.742 574.155L642.829 624.28L648.68 628.122L654.531 631.964L687.445 581.839L681.594 577.997ZM448.805 508.051L442.954 504.209C434.653 516.851 432.039 530.075 436.227 543.329L442.902 541.219L449.577 539.11C446.887 530.6 448.209 521.711 454.656 511.893L448.805 508.051ZM442.902 541.219L436.266 543.447C440.617 556.411 450.175 567.305 463.939 576.343L467.781 570.492L471.624 564.641C459.641 556.772 452.612 548.152 449.538 538.992L442.902 541.219ZM467.781 570.492L463.939 576.343C477.689 585.372 491.401 589.765 504.838 588.38L504.121 581.417L503.403 574.454C494.135 575.409 483.621 572.519 471.624 564.641L467.781 570.492ZM504.121 581.417L504.866 588.377C519.045 586.859 530.389 579.24 538.742 566.518L532.891 562.676L527.04 558.834C520.645 568.572 512.809 573.447 503.375 574.457L504.121 581.417ZM532.891 562.676L538.742 566.518L581.368 501.602L575.517 497.76L569.665 493.917L527.04 558.834L532.891 562.676ZM575.517 497.76L581.368 501.602C589.72 488.883 592.15 475.517 587.645 462.094L581.009 464.321L574.373 466.548C577.293 475.25 576.062 484.176 569.665 493.917L575.517 497.76ZM581.009 464.321L587.728 462.358C583.869 449.149 574.459 438.122 560.652 429.056L556.81 434.907L552.968 440.759C564.908 448.599 571.631 457.181 574.29 466.284L581.009 464.321ZM556.81 434.907L560.652 429.056C546.888 420.018 533.092 415.577 519.466 416.738L520.06 423.713L520.654 430.687C530.281 429.868 540.985 432.89 552.968 440.759L556.81 434.907ZM520.06 423.713L519.343 416.749C505.516 418.174 494.42 425.829 486.119 438.471L491.97 442.313L497.822 446.155C504.269 436.336 511.9 431.591 520.778 430.676L520.06 423.713ZM491.97 442.313L486.119 438.471L442.954 504.209L448.805 508.051L454.656 511.893L497.822 446.155L491.97 442.313Z" fill="white" fill-opacity="0.31" mask="url(#path-2-outside-1_1_3)"/> </g> <defs> <filter id="filter0_df_1_3" x="298.348" y="294.973" width="426.282" height="416.343" filterUnits="userSpaceOnUse" color-interpolation-filters="sRGB"> <feFlood flood-opacity="0" result="BackgroundImageFix"/> <feColorMatrix in="SourceAlpha" type="matrix" values="0 0 0 0 0 0 0 0 0 0 0 0 0 0 0 0 0 0 127 0" result="hardAlpha"/> <feOffset/> <feGaussianBlur stdDeviation="5.35"/> <feComposite in2="hardAlpha" operator="out"/> <feColorMatrix type="matrix" values="0 0 0 0 0 0 0 0 0 0 0 0 0 0 0 0 0 0 0.59 0"/> <feBlend mode="normal" in2="BackgroundImageFix" result="effect1_dropShadow_1_3"/> <feBlend mode="normal" in="SourceGraphic" in2="effect1_dropShadow_1_3" result="shape"/> <feGaussianBlur stdDeviation="0.65" result="effect2_foregroundBlur_1_3"/> </filter> <linearGradient id="paint0_linear_1_3" x1="673.571" y1="266.491" x2="350.93" y2="757.85" gradientUnits="userSpaceOnUse"> <stop stop-color="white"/> <stop offset="1" stop-color="#999999"/> </linearGradient> </defs> </svg> 